<svg width="512" height="512" xmlns="http://www.w3.org/2000/svg">

 <g>
  <title>background</title>
  <rect fill="none" id="canvas_background" height="402" width="582" y="-1" x="-1"/>
 </g>
 <g>
  <title>Layer 1</title>
  <path fill="#969696" id="svg_1" d="m441,416c0,13.8 -11.2,25 -25,25s-25,-11.2 -25,-25s11.2,-25 25,-25s25,11.2 25,25z"/>
  <path fill="#969696" id="svg_2" d="m153,416c0,13.8 -11.2,25 -25,25s-25,-11.2 -25,-25s11.2,-25 25,-25s25,11.2 25,25z"/>
  <path fill="#969696" id="svg_3" d="m127.9,96l-11.1,-32l-52.8,0l0,17l41.7,0l57.5,213.3c-32.4,11.3 -59.9,37.9 -65.3,73.1c-1.9,11.7 -1.9,16.6 -1.9,16.6l352,0l0,-16.7l-332.7,0c4.7,-31.6 38.8,-58.1 74.1,-62.5s243.3,-34.2 243.3,-34.2l15.3,-174.6l-320.1,0z"/>
 </g>
</svg>